<svg width="42" height="42" viewBox="0 0 42 42" fill="none" xmlns="http://www.w3.org/2000/svg">
<path d="M32.75 4.5C33.9746 4.5 34.9402 4.49881 35.6934 4.59375C36.4576 4.69013 37.0796 4.89316 37.5723 5.35645H37.5713C38.0704 5.82376 38.2934 6.42009 38.3984 7.15234C38.5009 7.86671 38.5 8.77981 38.5 9.9248V11.1318C38.5 12.0299 38.5006 12.742 38.4404 13.3223C38.3791 13.9141 38.2507 14.4079 37.9727 14.8682C37.6962 15.3272 37.3142 15.6807 36.8105 16.0303C36.5626 16.2023 36.2766 16.3788 35.9502 16.5703L34.8467 17.1992L29.749 20.0684C28.6129 20.7097 28.112 20.9948 27.7627 21.2979L27.7568 21.3027L27.4355 20.9199L27.7559 21.3027C27.0413 21.9013 26.5469 22.7216 26.3506 23.6328L26.3496 23.6367C26.2528 24.068 26.25 24.585 26.25 25.7764V30.4482C26.25 32.1018 26.2513 33.4022 26.0977 34.377C25.9414 35.3676 25.6083 36.1396 24.8467 36.6162C24.094 37.0872 23.2277 37.0784 22.21 36.8369C21.1998 36.5972 19.9283 36.0994 18.2988 35.4629L18.2979 35.4619C17.5257 35.1596 16.9096 34.9193 16.4346 34.6738C15.9503 34.4236 15.5674 34.1465 15.2832 33.7461C14.9973 33.3442 14.8694 32.8994 14.8086 32.375C14.7494 31.8643 14.75 31.2338 14.75 30.4502V25.7773C14.75 24.5842 14.7471 24.0679 14.6504 23.6387L14.6494 23.6377C14.4424 22.7046 13.9904 21.9502 13.2393 21.2988H13.2383C12.9752 21.0704 12.6277 20.8531 11.9912 20.4893L11.251 20.0713L6.15332 17.2012C5.33081 16.7383 4.68396 16.3742 4.18848 16.0293C3.68536 15.6791 3.30425 15.326 3.02734 14.8682C2.7489 14.4077 2.621 13.9131 2.55957 13.3213C2.49942 12.7417 2.5 12.0309 2.5 11.1338V9.92578C2.5 8.77991 2.49887 7.86685 2.60156 7.15234C2.70686 6.42005 2.92994 5.82366 3.42773 5.35645C3.92122 4.89331 4.54312 4.69016 5.30762 4.59375C6.06085 4.49877 7.02606 4.5 8.25 4.5H32.75Z" fill="#0F172A" stroke="#475569"/>
</svg>
