<svg width="25" height="25" viewBox="0 0 25 25" fill="none" xmlns="http://www.w3.org/2000/svg">
<path fill-rule="evenodd" clip-rule="evenodd" d="M17.9011 1.04167C18.4219 1.04167 18.9213 1.24855 19.2896 1.61681L22.0666 4.3938C22.4349 4.76206 22.6417 5.26151 22.6417 5.78231V19.6962C22.6417 21.323 21.3231 22.6417 19.6963 22.6417H3.9872C2.36048 22.6417 1.04175 21.323 1.04175 19.6962V3.98712C1.04175 2.3604 2.36048 1.04167 3.9872 1.04167H17.9011ZM3.9872 3.0053C3.44496 3.0053 3.00538 3.44488 3.00538 3.98712V19.6962C3.00538 20.2385 3.44496 20.678 3.9872 20.678H4.96902V14.7871C4.96902 13.1603 6.28775 11.8417 7.91448 11.8417H15.769C17.3958 11.8417 18.7145 13.1603 18.7145 14.7871V20.678H19.6963C20.2386 20.678 20.6781 20.2385 20.6781 19.6962V6.76413C20.6781 6.24333 20.4712 5.74388 20.103 5.37562L18.3078 3.58044C17.9395 3.21218 17.4401 3.0053 16.9193 3.0053H16.7508V4.96894C16.7508 6.59567 15.4322 7.9144 13.8054 7.9144H9.87811C8.25139 7.9144 6.93266 6.59567 6.93266 4.96894V3.0053H3.9872ZM16.7508 20.678V14.7871C16.7508 14.2449 16.3113 13.8053 15.769 13.8053H7.91448C7.37224 13.8053 6.93266 14.2449 6.93266 14.7871V20.678H16.7508ZM8.89629 3.0053H14.7872V4.96894C14.7872 5.51118 14.3476 5.95076 13.8054 5.95076H9.87811C9.33587 5.95076 8.89629 5.51118 8.89629 4.96894V3.0053Z" fill="#E2E8F0"/>
</svg>
