<svg width="42" height="42" viewBox="0 0 42 42" fill="none" xmlns="http://www.w3.org/2000/svg">
<path d="M24.5888 4.26642C23.9455 4 23.1302 4 21.4994 4C19.8686 4 19.0532 4 18.4099 4.26642C17.5524 4.62165 16.871 5.30302 16.5158 6.1606C16.3536 6.5521 16.2902 7.00738 16.2653 7.67148C16.2288 8.64744 15.7283 9.55081 14.8825 10.0391C14.0368 10.5274 13.0042 10.5092 12.1407 10.0528C11.5532 9.74227 11.1272 9.56958 10.707 9.51429C9.78671 9.39312 8.85595 9.64251 8.11951 10.2076C7.56718 10.6314 7.15948 11.3376 6.34409 12.7499C5.52869 14.1622 5.121 14.8683 5.03012 15.5586C4.90897 16.4789 5.15836 17.4097 5.72345 18.1461C5.98136 18.4823 6.34386 18.7647 6.90647 19.1182C7.73353 19.638 8.26569 20.5233 8.26564 21.5C8.26559 22.4767 7.73345 23.3618 6.90645 23.8814C6.34377 24.2351 5.98123 24.5177 5.72328 24.8539C5.15818 25.5903 4.90879 26.5209 5.02996 27.4412C5.12082 28.1315 5.52852 28.8377 6.34391 30.25C7.15932 31.6623 7.56702 32.3685 8.11934 32.7922C8.85577 33.3573 9.78653 33.6067 10.7069 33.4856C11.1269 33.4303 11.5529 33.2576 12.1405 32.9471C13.004 32.4907 14.0366 32.4725 14.8825 32.9608C15.7283 33.4492 16.2288 34.3525 16.2653 35.3287C16.2902 35.9926 16.3536 36.448 16.5158 36.8395C16.871 37.6969 17.5524 38.3784 18.4099 38.7337C19.0532 39 19.8686 39 21.4994 39C23.1302 39 23.9455 39 24.5888 38.7337C25.4463 38.3784 26.1278 37.6969 26.4829 36.8395C26.6451 36.448 26.7086 35.9926 26.7335 35.3285C26.7699 34.3525 27.2704 33.4492 28.1161 32.9608C28.9619 32.4723 29.9946 32.4907 30.8582 32.9471C31.4457 33.2576 31.8716 33.4301 32.2916 33.4854C33.212 33.6067 34.1428 33.3573 34.8792 32.7922C35.4315 32.3684 35.8392 31.6623 36.6546 30.2498C37.4701 28.8376 37.8778 28.1315 37.9686 27.4412C38.0897 26.5209 37.8404 25.5901 37.2753 24.8537C37.0173 24.5175 36.6547 24.2349 36.0921 23.8814C35.2652 23.3618 34.7331 22.4765 34.7331 21.4998C34.7331 20.5231 35.2652 19.6382 36.0921 19.1186C36.6549 18.7649 37.0175 18.4825 37.2755 18.1461C37.8405 17.4098 38.0899 16.479 37.9688 15.5587C37.878 14.8685 37.4702 14.1623 36.6547 12.75C35.8394 11.3377 35.4317 10.6315 34.8794 10.2077C34.143 9.64263 33.2121 9.39324 32.2918 9.51441C31.8718 9.56971 31.4459 9.74238 30.8582 10.0529C29.9948 10.5093 28.9621 10.5275 28.1163 10.0392C27.2704 9.55084 26.7699 8.64741 26.7335 7.67139C26.7086 7.00734 26.6451 6.55208 26.4829 6.1606C26.1278 5.30302 25.4463 4.62165 24.5888 4.26642Z" fill="#0F172A" stroke="#475569"/>
<path d="M21.25 26.5C24.1495 26.5 26.5 24.1495 26.5 21.25C26.5 18.3505 24.1495 16 21.25 16C18.3505 16 16 18.3505 16 21.25C16 24.1495 18.3505 26.5 21.25 26.5Z" fill="#1E293B" stroke="#475569"/>
</svg>
