<svg width="36" height="36" viewBox="0 0 36 36" fill="none" xmlns="http://www.w3.org/2000/svg">
<path d="M9.07385 27.7722L22.0392 18.864C22.0392 18.864 22.5414 18.5022 22.5414 17.9982C22.5414 17.4942 22.0392 17.136 22.0392 17.136L9.07385 8.22419C8.04425 7.54019 7.20005 8.04599 7.20005 9.35099L7.20005 26.6472C7.20005 27.9558 8.04425 28.4616 9.07385 27.7722ZM25.2 28.8H27C27.9954 28.8 28.8 28.7136 28.8 27.72L28.8 8.27999C28.8 7.28639 27.9954 7.19999 27 7.19999H25.2C24.2046 7.19999 23.4 7.28639 23.4 8.27999L23.4 27.72C23.4 28.7136 24.2046 28.8 25.2 28.8Z" fill="#E2E8F0"/>
</svg>
